<svg width="82" height="79" viewBox="0 0 82 79" fill="none" xmlns="http://www.w3.org/2000/svg">
<path d="M33.024 36.96L32.832 36.672C32.832 35.904 32.672 35.072 32.352 34.176C32.096 33.28 31.776 32.384 31.392 31.488C31.008 30.592 30.56 29.728 30.048 28.896C29.6 28 29.184 27.168 28.8 26.4L28.128 26.016C28.96 28 29.824 29.792 30.72 31.392C31.616 32.992 32.064 34.688 32.064 36.48L32.544 37.056L31.68 36.672V36.096C30.528 33.856 29.408 31.424 28.32 28.8C27.296 26.112 26.24 23.648 25.152 21.408C24.512 25.696 23.712 29.984 22.752 34.272C21.792 38.56 20.576 42.72 19.104 46.752C17.824 50.208 16.288 53.536 14.496 56.736C12.704 59.872 11.2 63.2 9.98398 66.72L9.21598 66.144L8.15998 66.336C7.58398 66.208 7.29598 65.824 7.29598 65.184C7.29598 64.672 7.39198 64.064 7.58398 63.36C7.77598 62.592 7.99998 61.824 8.25598 61.056C8.57598 60.288 8.89598 59.552 9.21598 58.848C9.53598 58.08 9.79198 57.472 9.98398 57.024L9.11998 56.736C8.92798 57.12 8.44798 57.984 7.67998 59.328C6.97598 60.672 6.17598 62.048 5.27998 63.456C4.44798 64.864 3.61598 66.144 2.78398 67.296C1.95198 68.448 1.31198 69.024 0.863976 69.024C0.543976 68.832 0.319976 68.544 0.191976 68.16C0.0639756 67.712 -2.43783e-05 67.328 -2.43783e-05 67.008C-2.43783e-05 65.152 0.415976 62.752 1.24798 59.808C2.14398 56.864 3.16798 53.824 4.31998 50.688C5.47198 47.488 6.62398 44.384 7.77598 41.376C8.99198 38.368 9.91998 35.84 10.56 33.792C11.136 32 11.648 30.08 12.096 28.032C12.608 25.92 13.024 23.808 13.344 21.696C13.728 19.52 14.048 17.376 14.304 15.264C14.56 13.152 14.784 11.136 14.976 9.216C16.064 8.384 17.536 7.67999 19.392 7.10399C21.312 6.52799 23.072 5.91999 24.672 5.27999C28.128 8.09599 31.104 11.328 33.6 14.976C36.096 18.624 38.272 22.752 40.128 27.36C41.28 25.632 42.336 23.712 43.296 21.6C44.32 19.488 45.248 17.312 46.08 15.072C46.912 12.768 47.712 10.496 48.48 8.256C49.248 6.016 50.016 3.93599 50.784 2.01599C52.384 1.50399 54.048 1.12 55.776 0.863995C57.568 0.607994 59.328 0.319994 61.056 -5.72205e-06C62.784 3.58399 64.416 7.00799 65.952 10.272C67.488 13.536 68.896 16.832 70.176 20.16C71.52 23.424 72.704 26.784 73.728 30.24C74.816 33.696 75.776 37.408 76.608 41.376C76.992 43.424 77.472 45.504 78.048 47.616C78.624 49.664 79.136 51.744 79.584 53.856C80.096 55.968 80.512 58.08 80.832 60.192C81.216 62.304 81.408 64.416 81.408 66.528C81.408 66.72 81.312 66.976 81.12 67.296C80.992 67.616 80.672 67.808 80.16 67.872C79.136 61.856 78.016 55.904 76.8 50.016C75.584 44.256 74.08 38.528 72.288 32.832C73.888 38.528 75.264 44.192 76.416 49.824C77.632 55.648 78.688 61.568 79.584 67.584L78.24 68.352C78.368 69.12 78.528 69.92 78.72 70.752C78.912 71.584 79.008 72.384 79.008 73.152C79.008 73.344 78.976 73.728 78.912 74.304C78.912 74.944 78.848 75.584 78.72 76.224C78.656 76.864 78.496 77.408 78.24 77.856C78.048 78.368 77.76 78.624 77.376 78.624C76.992 78.624 76.576 78.368 76.128 77.856C75.744 77.408 75.36 76.832 74.976 76.128C74.656 75.488 74.336 74.848 74.016 74.208C73.76 73.632 73.568 73.184 73.44 72.864C73.056 68.64 72.384 63.936 71.424 58.752C70.528 53.504 69.44 48.224 68.16 42.912C66.88 37.536 65.408 32.352 63.744 27.36C62.144 22.304 60.448 17.856 58.656 14.016L58.56 14.496C60.608 18.848 62.368 23.328 63.84 27.936C65.312 32.48 66.592 37.12 67.68 41.856C68.768 46.528 69.696 51.264 70.464 56.064C71.232 60.8 71.904 65.504 72.48 70.176C71.136 67.232 70.048 64.256 69.216 61.248C68.448 58.176 67.744 55.136 67.104 52.128C66.528 49.056 65.92 45.984 65.28 42.912C64.704 39.84 63.968 36.736 63.072 33.6L63.744 31.68C62.848 29.056 61.92 26.464 60.96 23.904C60.064 21.344 59.008 18.848 57.792 16.416L57.408 17.376C56.704 19.296 55.808 21.536 54.72 24.096C53.632 26.656 52.352 29.152 50.88 31.584C49.408 34.016 47.744 36.192 45.888 38.112C44.096 40.032 42.112 41.312 39.936 41.952C38.592 41.12 37.216 40.352 35.808 39.648C34.464 38.88 33.088 38.112 31.68 37.344V36.768L35.52 38.88C36.8 39.584 38.08 40.32 39.36 41.088L40.128 40.896C42.88 39.296 45.088 37.696 46.752 36.096C48.48 34.496 49.952 32.736 51.168 30.816C52.384 28.896 53.44 26.752 54.336 24.384C55.296 21.952 56.384 19.2 57.6 16.128L57.216 15.264L56.832 16.128L55.2 19.872C54.56 21.408 53.76 23.072 52.8 24.864C51.904 26.592 50.88 28.384 49.728 30.24C48.64 32.032 47.52 33.696 46.368 35.232C45.216 36.704 44.032 37.92 42.816 38.88C41.6 39.776 40.448 40.224 39.36 40.224L33.024 36.96ZM66.048 13.728C65.92 13.344 65.696 12.832 65.376 12.192C65.056 11.488 64.704 10.784 64.32 10.08C64 9.37599 63.68 8.70399 63.36 8.06399C63.04 7.35999 62.784 6.848 62.592 6.528L63.648 9.50399L65.76 13.92L66.048 13.728ZM55.968 14.112L52.704 22.752C53.344 21.408 53.92 20.064 54.432 18.72C55.008 17.376 55.552 16.032 56.064 14.688L55.968 14.112ZM53.472 5.27999L54.72 8.44799L55.2 8.352L54.048 5.27999H53.472ZM15.936 10.464L15.744 13.344C15.744 13.984 15.68 14.848 15.552 15.936L16.608 10.272L15.936 10.464ZM48.768 12.48L51.264 6.528H50.88L48.768 12.48ZM62.304 5.95199L60.096 2.30399L60.288 3.35999L62.304 5.95199ZM58.176 12.96L57.984 13.344L58.368 14.112L58.464 13.632L58.176 12.96Z" fill="#FF9E42"/>
</svg>
