<svg width="155" height="40" viewBox="0 0 155 40" fill="none" xmlns="http://www.w3.org/2000/svg">
<path d="M0.912 33.6C1.712 33.12 2.448 32.496 3.12 31.728C3.792 30.96 4.496 30.208 5.232 29.472C4.784 29.76 4.384 30.08 4.032 30.432L3.024 31.44C2.672 31.792 2.288 32.144 1.872 32.496C1.488 32.816 1.024 33.104 0.48 33.36C0.32 33.2 0.192 33.072 0.096 32.976C0.0319999 32.88 -5.96046e-08 32.752 -5.96046e-08 32.592C-5.96046e-08 32.432 0.016 32.336 0.048 32.304L1.584 30.768C1.584 30.896 1.664 31.008 1.824 31.104C1.984 31.168 2.112 31.2 2.208 31.2C2.368 30.72 2.608 30.336 2.928 30.048C3.248 29.76 3.584 29.504 3.936 29.28C4.288 29.024 4.624 28.752 4.944 28.464C5.264 28.176 5.504 27.792 5.664 27.312C5.632 27.28 5.616 27.248 5.616 27.216C5.552 27.152 5.504 27.12 5.472 27.12L1.872 30.48C2.096 30.224 2.464 29.792 2.976 29.184C3.488 28.576 4.016 27.952 4.56 27.312C5.104 26.672 5.6 26.112 6.048 25.632C6.528 25.152 6.832 24.912 6.96 24.912L7.008 24.96C7.264 25.056 7.616 25.152 8.064 25.248C8.544 25.312 8.896 25.344 9.12 25.344C9.344 25.344 9.6 25.296 9.888 25.2C9.888 25.392 9.984 25.616 10.176 25.872C10.368 26.128 10.576 26.384 10.8 26.64C11.024 26.896 11.232 27.152 11.424 27.408C11.616 27.632 11.712 27.808 11.712 27.936C11.712 28.16 11.632 28.272 11.472 28.272H11.328C11.328 28.56 11.344 29.072 11.376 29.808C11.44 30.512 11.472 31.328 11.472 32.256C11.472 32.768 11.312 33.216 10.992 33.6C10.672 33.984 10.304 34.32 9.888 34.608C9.472 34.896 9.04 35.136 8.592 35.328C8.176 35.52 7.856 35.664 7.632 35.76C7.44 35.76 7.36 35.856 7.392 36.048C7.424 36.272 7.36 36.384 7.2 36.384H6.96C6.864 36.384 6.72 36.336 6.528 36.24C6.336 36.176 6.128 36.08 5.904 35.952C5.936 35.856 6.096 35.616 6.384 35.232C6.704 34.816 7.04 34.384 7.392 33.936C7.744 33.456 8.08 33.024 8.4 32.64C8.72 32.224 8.928 31.968 9.024 31.872C8.864 31.968 8.608 32.208 8.256 32.592C7.904 32.944 7.536 33.344 7.152 33.792C6.8 34.208 6.448 34.608 6.096 34.992C5.776 35.344 5.568 35.568 5.472 35.664C5.056 35.44 4.768 35.328 4.608 35.328L4.368 35.52C4.016 35.52 3.632 35.44 3.216 35.28C2.832 35.152 2.464 34.992 2.112 34.8C1.792 34.608 1.504 34.416 1.248 34.224C1.024 34.032 0.912 33.888 0.912 33.792V33.6ZM22.02 37.056C21.764 36.896 21.604 36.528 21.54 35.952C21.476 35.376 21.444 34.672 21.444 33.84V32.688H21.012C20.98 32.88 20.9 33.328 20.772 34.032C20.676 34.736 20.532 35.472 20.34 36.24C20.18 37.04 19.972 37.744 19.716 38.352C19.492 38.96 19.236 39.264 18.948 39.264C18.692 39.264 18.484 38.928 18.324 38.256C18.164 37.584 18.052 36.8 17.988 35.904C17.924 35.04 17.876 34.176 17.844 33.312C17.844 32.416 17.844 31.76 17.844 31.344C17.844 29.136 17.876 26.96 17.94 24.816C18.004 22.64 18.036 20.464 18.036 18.288C18.036 16.112 17.86 13.952 17.508 11.808C17.156 9.632 16.98 7.488 16.98 5.376C17.428 4.8 17.844 4.208 18.228 3.6C18.644 2.992 19.044 2.368 19.428 1.728C20.58 1.44 21.78 1.168 23.028 0.911998C24.276 0.655997 25.508 0.527997 26.724 0.527997C30.084 0.527997 32.948 1.056 35.316 2.112C37.716 3.136 39.668 4.608 41.172 6.528C42.676 8.416 43.78 10.688 44.484 13.344C45.188 15.968 45.54 18.864 45.54 22.032C45.54 27.152 44.132 30.96 41.316 33.456C38.5 35.92 34.564 37.152 29.508 37.152C29.316 37.152 29.012 37.12 28.596 37.056C28.18 37.024 27.892 36.912 27.732 36.72C28.628 36.592 29.652 36.432 30.804 36.24C31.988 36.08 33.172 35.872 34.356 35.616C35.54 35.36 36.66 35.04 37.716 34.656C38.804 34.24 39.7 33.728 40.404 33.12C39.444 33.76 38.452 34.272 37.428 34.656C36.436 35.008 35.412 35.28 34.356 35.472C33.332 35.664 32.276 35.808 31.188 35.904C30.1 36 29.012 36.112 27.924 36.24L28.068 35.712L27.924 35.328C27.316 35.424 26.756 35.52 26.244 35.616C25.764 35.712 25.252 35.76 24.708 35.76C24.164 35.76 23.636 35.696 23.124 35.568L23.076 36.96L22.02 37.056ZM25.428 32.976C27.636 32.976 29.684 32.912 31.572 32.784C33.492 32.656 35.156 32.24 36.564 31.536C37.972 30.832 39.076 29.76 39.876 28.32C40.708 26.848 41.124 24.784 41.124 22.128C41.124 20.816 41.028 19.44 40.836 18C40.676 16.528 40.356 15.104 39.876 13.728C39.428 12.32 38.804 11.04 38.004 9.888C37.268 8.8 36.34 7.904 35.22 7.2C36.308 7.936 37.204 8.848 37.908 9.936C38.708 11.12 39.316 12.4 39.732 13.776C40.18 15.152 40.484 16.576 40.644 18.048C40.836 19.488 40.932 20.864 40.932 22.176C40.932 23.936 40.772 25.408 40.452 26.592C40.132 27.744 39.684 28.688 39.108 29.424C38.532 30.128 37.812 30.672 36.948 31.056C36.116 31.44 35.172 31.728 34.116 31.92C33.092 32.08 31.956 32.208 30.708 32.304C29.46 32.368 28.132 32.448 26.724 32.544C27.844 32.064 29.044 31.744 30.324 31.584C31.636 31.424 32.884 31.216 34.068 30.96C35.284 30.704 36.372 30.272 37.332 29.664C38.292 29.024 39.012 27.984 39.492 26.544L40.068 26.352C40.196 25.712 40.276 25.152 40.308 24.672C40.34 24.16 40.356 23.584 40.356 22.944C40.356 20.96 40.196 18.976 39.876 16.992C39.556 14.976 38.964 13.168 38.1 11.568C37.236 9.936 36.036 8.624 34.5 7.632C32.964 6.608 30.996 6.096 28.596 6.096C27.7 6.096 26.804 6.16 25.908 6.288C25.044 6.384 24.18 6.528 23.316 6.72C23.38 6.752 23.412 6.8 23.412 6.864C23.412 6.96 23.396 7.008 23.364 7.008C25.06 6.656 26.692 6.48 28.26 6.48C30.212 6.48 31.908 6.832 33.348 7.536C34.788 8.208 35.972 9.152 36.9 10.368C37.86 11.552 38.564 12.944 39.012 14.544C39.492 16.144 39.748 17.856 39.78 19.68C39.524 17.824 39.172 16.112 38.724 14.544C38.276 12.944 37.62 11.568 36.756 10.416C35.892 9.264 34.772 8.368 33.396 7.728C32.02 7.056 30.276 6.72 28.164 6.72C27.364 6.72 26.564 6.736 25.764 6.768C24.964 6.8 24.18 6.944 23.412 7.2C23.572 9.184 23.716 11.152 23.844 13.104C23.972 15.056 24.036 17.024 24.036 19.008C24.036 21.632 23.924 24.224 23.7 26.784C23.508 29.312 23.332 31.872 23.172 34.464C23.492 34.144 23.86 33.888 24.276 33.696C24.692 33.472 25.076 33.232 25.428 32.976ZM44.58 22.272C44.58 20.704 44.468 19.12 44.244 17.52C44.052 15.92 43.732 14.368 43.284 12.864C43.732 14.496 44.036 16.128 44.196 17.76C44.388 19.392 44.484 21.04 44.484 22.704C44.484 23.536 44.436 24.384 44.34 25.248C44.308 25.344 44.292 25.44 44.292 25.536C44.484 24.48 44.58 23.392 44.58 22.272ZM39.924 22.464C39.924 22.944 39.892 23.408 39.828 23.856C39.86 23.664 39.876 23.472 39.876 23.28V21.696C39.876 21.728 39.876 21.76 39.876 21.792C39.908 21.984 39.924 22.208 39.924 22.464ZM39.876 21.696C39.876 21.504 39.86 21.328 39.828 21.168C39.86 21.36 39.876 21.536 39.876 21.696ZM43.812 27.744C43.876 27.552 43.924 27.36 43.956 27.168C43.924 27.36 43.876 27.552 43.812 27.744ZM69.171 19.68C67.923 19.232 66.627 18.944 65.283 18.816C64.003 18.656 62.691 18.512 61.347 18.384C62.563 18.576 63.811 18.752 65.091 18.912C66.435 19.072 67.699 19.424 68.883 19.968C68.755 20.096 68.627 20.208 68.499 20.304C68.371 20.4 68.243 20.448 68.115 20.448C67.667 20.448 67.235 20.4 66.819 20.304C66.403 20.176 65.955 20.112 65.475 20.112V19.536C65.315 19.568 65.091 19.584 64.803 19.584C64.003 19.584 63.219 19.472 62.451 19.248C61.683 19.024 60.899 18.912 60.099 18.912C59.683 18.912 59.283 18.96 58.899 19.056V19.248C59.923 19.312 60.963 19.424 62.019 19.584C63.107 19.712 64.211 19.888 65.331 20.112C64.307 19.952 63.203 19.808 62.019 19.68C60.867 19.552 59.779 19.488 58.755 19.488C58.339 19.488 57.939 19.504 57.555 19.536C57.203 19.536 56.851 19.552 56.499 19.584C56.499 20.256 56.515 21.04 56.547 21.936C56.579 22.832 56.643 23.712 56.739 24.576C56.835 25.408 56.947 26.144 57.075 26.784C57.203 27.424 57.363 27.84 57.555 28.032L57.987 28.896C58.371 30.08 59.651 30.672 61.827 30.672C62.307 30.672 62.883 30.608 63.555 30.48C64.227 30.352 64.899 30.208 65.571 30.048C66.275 29.856 66.931 29.696 67.539 29.568C68.179 29.44 68.723 29.376 69.171 29.376C69.619 29.376 69.875 29.44 69.939 29.568C70.003 29.696 70.035 29.872 70.035 30.096C68.691 30.256 67.395 30.496 66.147 30.816C65.059 31.104 64.003 31.328 62.979 31.488C64.003 31.328 65.043 31.136 66.099 30.912C67.347 30.624 68.611 30.4 69.891 30.24C69.827 30.432 69.795 30.56 69.795 30.624C69.795 30.816 69.875 30.976 70.035 31.104L70.707 31.008C70.899 30.976 71.091 30.96 71.283 30.96C71.475 30.928 71.651 30.88 71.811 30.816C72.387 30.976 72.787 31.152 73.011 31.344C73.267 31.536 73.395 31.744 73.395 31.968C73.395 32.384 73.187 32.672 72.771 32.832C72.387 32.992 72.019 33.248 71.667 33.6H71.475C70.547 33.6 69.651 33.68 68.787 33.84C67.923 33.968 67.059 34.112 66.195 34.272C65.363 34.432 64.499 34.592 63.603 34.752C62.739 34.88 61.843 34.944 60.915 34.944H60.243H59.955C60.563 35.008 61.219 35.04 61.923 35.04C62.819 35.04 63.651 34.992 64.419 34.896C65.219 34.8 65.987 34.688 66.723 34.56C67.459 34.432 68.163 34.32 68.835 34.224C69.539 34.128 70.243 34.08 70.947 34.08C70.435 34.336 69.811 34.592 69.075 34.848C68.339 35.072 67.523 35.264 66.627 35.424C65.731 35.616 64.803 35.76 63.843 35.856C62.883 35.984 61.939 36.048 61.011 36.048C60.371 36.048 59.747 36.016 59.139 35.952C58.531 35.888 57.875 35.68 57.171 35.328L57.123 34.8C56.675 34.64 56.195 34.352 55.683 33.936C55.203 33.488 54.755 33.024 54.339 32.544C53.923 32.064 53.571 31.616 53.283 31.2C52.995 30.784 52.851 30.512 52.851 30.384L52.707 29.952C52.419 29.344 52.179 28.672 51.987 27.936C51.827 27.2 51.699 26.464 51.603 25.728C51.507 24.96 51.427 24.208 51.363 23.472C51.299 22.736 51.251 22.048 51.219 21.408C51.155 20.352 51.107 19.296 51.075 18.24C51.043 17.152 51.027 16.064 51.027 14.976C51.027 13.888 51.027 12.8 51.027 11.712C51.059 10.592 51.075 9.472 51.075 8.352H50.931C50.771 9.568 50.675 10.736 50.643 11.856C50.643 12.976 50.643 14.096 50.643 15.216V17.088C50.643 19.328 50.755 21.664 50.979 24.096C51.235 26.528 51.859 28.896 52.851 31.2C52.115 29.952 51.651 28.72 51.459 27.504C51.267 26.256 51.091 25.104 50.931 24.048C50.739 22.672 50.595 21.344 50.499 20.064C50.435 18.784 50.403 17.472 50.403 16.128V15.12C50.403 13.264 50.451 11.376 50.547 9.456C50.643 7.536 50.931 5.504 51.411 3.36C51.219 3.36 51.123 3.264 51.123 3.072C51.123 2.88 51.219 2.608 51.411 2.256C51.635 1.904 51.907 1.568 52.227 1.248C52.547 0.895997 52.899 0.607997 53.283 0.383996C53.699 0.127997 54.099 -1.90735e-06 54.483 -1.90735e-06H65.907C67.091 0.223997 68.243 0.415997 69.363 0.575996C70.515 0.703997 71.715 0.799997 72.963 0.863998L72.915 1.968C72.915 2.16 72.819 2.32 72.627 2.448C72.467 2.544 72.083 2.592 71.475 2.592C71.283 2.592 71.043 2.592 70.755 2.592C70.499 2.56 70.211 2.528 69.891 2.496V2.928C71.203 3.216 72.227 3.568 72.963 3.984C73.731 4.4 74.115 4.8 74.115 5.184C74.115 5.632 73.683 5.904 72.819 6C71.987 6.096 70.867 6.144 69.459 6.144C67.667 6.144 65.747 6.144 63.699 6.144C61.683 6.112 59.731 6.016 57.843 5.856H57.027C56.867 7.072 56.755 8.32 56.691 9.6C56.627 10.88 56.579 12.192 56.547 13.536C57.059 13.536 57.555 13.52 58.035 13.488C58.547 13.424 59.075 13.392 59.619 13.392C60.067 13.392 60.579 13.44 61.155 13.536C61.763 13.6 62.387 13.696 63.027 13.824C63.699 13.952 64.355 14.112 64.995 14.304C65.667 14.464 66.275 14.64 66.819 14.832C66.915 14.864 67.027 14.88 67.155 14.88H67.971C68.387 14.88 68.659 14.944 68.787 15.072C68.947 15.2 69.027 15.456 69.027 15.84C68.483 15.84 67.971 15.808 67.491 15.744C67.011 15.68 66.547 15.616 66.099 15.552C66.547 15.712 67.011 15.84 67.491 15.936C67.971 16 68.483 16.064 69.027 16.128C68.963 16.288 68.915 16.432 68.883 16.56C68.883 16.688 68.883 16.8 68.883 16.896C69.203 16.96 69.411 17.12 69.507 17.376C69.635 17.6 69.699 17.856 69.699 18.144C69.699 18.56 69.603 18.896 69.411 19.152C69.251 19.376 69.171 19.552 69.171 19.68ZM52.275 25.104C52.403 25.872 52.547 26.704 52.707 27.6C52.899 28.464 53.171 29.328 53.523 30.192C53.907 31.024 54.419 31.808 55.059 32.544C55.571 33.152 56.243 33.664 57.075 34.08C56.115 33.568 55.331 32.864 54.723 31.968C54.019 30.88 53.459 29.664 53.043 28.32C52.659 26.976 52.371 25.552 52.179 24.048C52.019 22.544 51.891 21.104 51.795 19.728C51.827 20.592 51.875 21.472 51.939 22.368C52.003 23.264 52.115 24.176 52.275 25.104ZM64.035 15.312C64.579 15.408 65.155 15.488 65.763 15.552C65.187 15.392 64.643 15.28 64.131 15.216C63.619 15.12 63.107 15.008 62.595 14.88C63.011 15.072 63.491 15.216 64.035 15.312ZM56.163 34.992C55.747 34.8 55.379 34.576 55.059 34.32C54.835 34.128 54.627 33.936 54.435 33.744C54.627 33.936 54.851 34.112 55.107 34.272C55.459 34.528 55.811 34.768 56.163 34.992ZM57.603 34.32L57.171 34.128L57.603 34.32ZM98.4604 32.976C98.4604 31.92 98.3804 30.848 98.2204 29.76C98.0924 28.672 98.0284 27.616 98.0284 26.592V25.296C97.8684 24.048 97.6764 22.592 97.4524 20.928C97.2284 19.232 96.9404 17.632 96.5884 16.128C96.2364 14.624 95.8044 13.344 95.2924 12.288C94.7804 11.232 94.1404 10.704 93.3724 10.704C92.2524 10.704 91.1004 11.232 89.9164 12.288C88.7324 13.312 87.7404 14.816 86.9404 16.8C86.5564 17.92 86.2844 19.104 86.1244 20.352C85.9964 21.6 85.8844 22.912 85.7884 24.288C85.6924 25.664 85.5964 27.088 85.5004 28.56C85.4364 30 85.2924 31.504 85.0684 33.072C85.0044 33.232 84.9404 33.424 84.8764 33.648C84.8444 33.872 84.8124 34.064 84.7804 34.224H78.8764V30.336C78.8444 30.016 78.8124 29.632 78.7804 29.184C78.7484 28.736 78.7004 28.288 78.6364 27.84C78.6044 27.36 78.5724 26.896 78.5404 26.448C78.5084 26 78.4764 25.616 78.4444 25.296C78.4444 22.704 78.3324 20.112 78.1084 17.52C77.9164 14.928 77.7884 12.288 77.7244 9.6L78.8284 9.36C78.9244 9.36 79.0204 9.456 79.1164 9.648C79.2444 9.808 79.3404 10.128 79.4044 10.608C79.5004 11.088 79.5804 11.776 79.6444 12.672C79.7404 13.536 79.8204 14.672 79.8844 16.08C79.9164 16.08 79.9644 16.064 80.0284 16.032C80.1564 15.968 80.2524 15.936 80.3164 15.936C80.3164 15.712 80.3004 15.488 80.2684 15.264C80.2684 15.04 80.2684 14.816 80.2684 14.592C80.2684 11.84 80.4444 9.728 80.7964 8.256C81.1804 6.752 81.5004 6 81.7564 6C81.9484 6 82.1404 6.416 82.3324 7.248C82.5244 8.08 82.7324 9.392 82.9564 11.184C83.5004 10.32 84.1244 9.488 84.8284 8.688C85.5324 7.888 86.3164 7.2 87.1804 6.624C88.0764 6.016 89.0364 5.536 90.0604 5.184C91.0844 4.832 92.2044 4.656 93.4204 4.656C94.4764 4.656 95.4044 4.88 96.2044 5.328C97.0044 5.776 97.7084 6.368 98.3164 7.104C98.9564 7.808 99.4844 8.624 99.9004 9.552C100.348 10.448 100.732 11.36 101.052 12.288C101.372 13.184 101.628 14.064 101.82 14.928C102.044 15.76 102.236 16.464 102.396 17.04C102.396 17.104 102.412 17.184 102.444 17.28C102.476 17.344 102.508 17.408 102.54 17.472C102.924 16.448 103.404 15.28 103.98 13.968C104.556 12.624 105.276 11.36 106.14 10.176C107.004 8.992 108.012 8 109.164 7.2C110.348 6.368 111.708 5.952 113.244 5.952C114.748 5.952 116.028 6.352 117.084 7.152C118.14 7.952 119.02 8.976 119.724 10.224C120.46 11.472 121.036 12.864 121.452 14.4C121.9 15.904 122.236 17.392 122.46 18.864C122.684 20.304 122.828 21.632 122.892 22.848C122.956 24.064 122.988 24.992 122.988 25.632C122.988 26.656 122.94 27.408 122.844 27.888C122.78 28.368 122.572 28.608 122.22 28.608C122.156 27.328 122.092 26.032 122.028 24.72C121.996 23.408 121.9 22.096 121.74 20.784C121.612 19.44 121.42 18.128 121.164 16.848C120.908 15.6 120.572 14.368 120.156 13.152C120.956 15.68 121.42 18.208 121.548 20.736C121.708 23.296 121.836 25.824 121.932 28.32C121.708 28.096 121.532 27.984 121.404 27.984C121.308 27.984 121.244 28.048 121.212 28.176V29.616C121.212 30.032 121.212 30.464 121.212 30.912C121.244 31.36 121.292 31.744 121.356 32.064C121.292 33.376 121.228 34.32 121.164 34.896C121.132 35.44 121.02 35.792 120.828 35.952C120.572 35.952 120.348 35.808 120.156 35.52C119.964 35.232 119.772 34.864 119.58 34.416C119.42 33.968 119.26 33.472 119.1 32.928C118.94 32.384 118.78 31.856 118.62 31.344V30.048C118.62 28.64 118.604 27.168 118.572 25.632C118.572 24.096 118.508 22.608 118.38 21.168C118.284 19.696 118.108 18.304 117.852 16.992C117.628 15.68 117.308 14.528 116.892 13.536C116.508 12.512 115.996 11.712 115.356 11.136C114.748 10.56 113.996 10.272 113.1 10.272C112.364 10.272 111.692 10.464 111.084 10.848C110.732 11.072 110.38 11.36 110.028 11.712C110.38 11.392 110.748 11.12 111.132 10.896C111.74 10.512 112.396 10.32 113.1 10.32H113.292C114.092 10.32 114.764 10.64 115.308 11.28C115.884 11.888 116.348 12.704 116.7 13.728C117.084 14.752 117.372 15.92 117.564 17.232C117.756 18.544 117.9 19.904 117.996 21.312C118.124 22.72 118.204 24.128 118.236 25.536C118.268 26.912 118.3 28.176 118.332 29.328C118.14 28.432 117.964 27.376 117.804 26.16C117.676 24.912 117.532 23.616 117.372 22.272C117.244 20.928 117.068 19.6 116.844 18.288C116.652 16.976 116.396 15.808 116.076 14.784C115.756 13.728 115.356 12.88 114.876 12.24C114.396 11.6 113.804 11.28 113.1 11.28C112.812 11.28 112.556 11.312 112.332 11.376C112.108 11.408 111.82 11.568 111.468 11.856L110.988 11.616C109.9 12.576 108.988 13.856 108.252 15.456C107.516 17.056 106.892 18.784 106.38 20.64C105.868 22.464 105.436 24.336 105.084 26.256C104.732 28.176 104.396 29.952 104.076 31.584V33.408C104.588 30.88 105.052 28.4 105.468 25.968C105.916 23.504 106.556 21.12 107.388 18.816C106.748 20.8 106.252 22.848 105.9 24.96C105.548 27.072 105.148 29.232 104.7 31.44C104.7 31.664 104.652 31.968 104.556 32.352C104.46 32.736 104.3 33.312 104.076 34.08L98.7964 33.552L98.4604 32.976ZM98.9884 30.576C98.8924 29.712 98.7964 28.608 98.7004 27.264C98.6364 25.92 98.5404 24.496 98.4124 22.992C98.2844 21.488 98.1084 19.968 97.8844 18.432C97.6604 16.896 97.3404 15.52 96.9244 14.304C96.5404 13.056 96.0444 12.048 95.4364 11.28C94.8604 10.512 94.1244 10.128 93.2284 10.128C92.9404 10.128 92.6364 10.192 92.3164 10.32C91.9964 10.448 91.6924 10.592 91.4044 10.752C91.5004 10.72 91.5804 10.704 91.6444 10.704H91.6924C91.6924 10.736 91.6444 10.8 91.5484 10.896C92.4124 10.608 93.0844 10.464 93.5644 10.464C94.1724 10.688 94.7164 11.184 95.1964 11.952C95.6764 12.72 96.0764 13.648 96.3964 14.736C96.7484 15.792 97.0364 16.944 97.2604 18.192C97.5164 19.44 97.7084 20.64 97.8364 21.792C97.9644 22.912 98.0604 23.92 98.1244 24.816C98.1884 25.712 98.2204 26.352 98.2204 26.736C98.3164 27.696 98.3964 28.64 98.4604 29.568C98.5564 30.496 98.6044 31.424 98.6044 32.352L98.9884 30.576ZM103.02 17.664C103.02 17.696 103.052 17.84 103.116 18.096C103.18 18.32 103.228 18.464 103.26 18.528C103.356 18.208 103.564 17.696 103.884 16.992C104.204 16.256 104.556 15.488 104.94 14.688C105.324 13.856 105.692 13.088 106.044 12.384C106.172 12.096 106.284 11.84 106.38 11.616C106.284 11.808 106.156 12.016 105.996 12.24C105.644 12.88 105.26 13.552 104.844 14.256C104.428 14.928 104.044 15.584 103.692 16.224C103.34 16.864 103.116 17.344 103.02 17.664ZM106.812 17.088C106.172 18.72 105.612 20.448 105.132 22.272C104.652 24.064 104.22 25.92 103.836 27.84L103.932 28.608C104.348 26.304 104.828 23.984 105.372 21.648C105.884 19.6 106.54 17.664 107.34 15.84C107.308 15.936 107.276 16.016 107.244 16.08C107.084 16.4 106.94 16.736 106.812 17.088ZM98.9884 23.616C99.0524 24.128 99.0844 24.624 99.0844 25.104C99.1164 25.584 99.1484 26.032 99.1804 26.448L99.3244 28.752L99.3724 28.512C99.3404 28.064 99.3244 27.632 99.3244 27.216V26.016L98.9884 23.616ZM114.732 7.152C114.156 6.992 113.612 6.912 113.1 6.912H112.572C112.348 6.912 112.236 6.928 112.236 6.96H112.284C112.796 7.088 113.276 7.152 113.724 7.152H114.732ZM107.628 18.144C107.788 17.696 107.932 17.264 108.06 16.848C108.22 16.432 108.348 16.144 108.444 15.984C108.444 16.048 108.412 16.176 108.348 16.368C108.284 16.592 108.156 16.928 107.964 17.376L107.628 18.144ZM118.044 9.168C117.884 8.976 117.676 8.784 117.42 8.592C117.228 8.464 117.052 8.352 116.892 8.256C117.276 8.512 117.66 8.816 118.044 9.168ZM106.62 11.184C106.556 11.248 106.508 11.344 106.476 11.472C106.54 11.376 106.588 11.28 106.62 11.184ZM137.957 6.384C137.989 6.544 138.165 6.624 138.485 6.624H138.581C138.773 6.624 138.901 6.64 138.965 6.672C140.629 7.184 142.277 7.936 143.909 8.928C145.573 9.888 147.061 11.056 148.373 12.432C149.717 13.776 150.789 15.312 151.589 17.04C152.421 18.768 152.837 20.624 152.837 22.608C152.837 24.336 152.501 26 151.829 27.6C151.157 29.2 150.229 30.592 149.045 31.776C150.261 30.72 151.221 29.408 151.925 27.84C152.661 26.24 153.029 24.528 153.029 22.704C153.029 20.656 152.597 18.752 151.733 16.992C150.869 15.2 149.765 13.6 148.421 12.192C147.077 10.784 145.573 9.584 143.909 8.592C142.277 7.568 140.677 6.784 139.109 6.24C140.325 6.24 141.557 6.512 142.805 7.056C144.085 7.6 145.301 8.32 146.453 9.216C147.605 10.08 148.661 11.088 149.621 12.24C150.613 13.36 151.445 14.512 152.117 15.696L151.781 16.176C152.421 17.136 152.901 18.176 153.221 19.296C153.573 20.416 153.749 21.568 153.749 22.752C153.749 25.024 153.253 27.024 152.261 28.752C151.301 30.448 150.069 31.872 148.565 33.024C147.093 34.144 145.461 34.992 143.669 35.568C141.909 36.144 140.245 36.432 138.677 36.432C137.781 36.432 136.869 36.336 135.941 36.144C135.045 35.952 134.133 35.632 133.205 35.184V35.472C134.101 35.984 135.013 36.336 135.941 36.528C136.901 36.72 137.845 36.816 138.773 36.816C141.077 36.816 143.333 36.304 145.541 35.28C147.781 34.288 149.669 32.88 151.205 31.056C149.733 32.944 147.893 34.416 145.685 35.472C143.509 36.528 141.237 37.056 138.869 37.056C136.437 37.056 134.469 36.576 132.965 35.616C131.461 34.688 130.277 33.536 129.413 32.16C128.581 30.784 128.021 29.328 127.733 27.792C127.445 26.256 127.301 24.88 127.301 23.664C127.301 22.032 127.509 20.432 127.925 18.864C128.373 17.296 129.045 15.856 129.941 14.544C130.837 13.232 131.989 12.112 133.397 11.184C134.805 10.224 136.501 9.552 138.485 9.168L137.093 8.832C136.421 8.672 135.941 8.48 135.653 8.256C135.365 8.032 135.221 7.84 135.221 7.68C135.221 7.424 135.493 7.152 136.037 6.864C136.613 6.544 137.253 6.384 137.957 6.384ZM135.797 12.432C136.661 12.112 137.493 11.952 138.293 11.952C139.093 11.952 139.701 12.08 140.117 12.336C140.565 12.56 140.789 12.8 140.789 13.056C140.789 13.216 140.597 13.392 140.213 13.584C139.861 13.776 139.397 14.048 138.821 14.4C138.277 14.72 137.669 15.136 136.997 15.648C136.357 16.16 135.749 16.816 135.173 17.616C134.629 18.384 134.165 19.328 133.781 20.448C133.429 21.568 133.253 22.88 133.253 24.384C133.253 26.592 133.749 28.256 134.741 29.376C135.733 30.496 137.109 31.056 138.869 31.056C139.989 31.056 141.125 30.864 142.277 30.48C143.461 30.096 144.517 29.552 145.445 28.848C146.405 28.144 147.173 27.28 147.749 26.256C148.357 25.232 148.661 24.08 148.661 22.8C148.661 21.84 148.485 20.88 148.133 19.92C147.813 18.96 147.349 18.048 146.741 17.184C146.165 16.288 145.461 15.456 144.629 14.688C143.829 13.92 142.949 13.264 141.989 12.72C141.061 12.208 140.293 11.824 139.685 11.568C139.109 11.28 138.693 11.008 138.437 10.752C138.181 10.88 137.813 11.04 137.333 11.232C136.885 11.392 136.277 11.648 135.509 12L135.797 12.432ZM139.013 10.176C140.485 10.656 141.893 11.376 143.237 12.336C144.389 13.2 145.445 14.144 146.405 15.168C145.477 14.08 144.469 13.104 143.381 12.24C142.133 11.216 140.741 10.416 139.205 9.84L139.013 10.176ZM148.325 26.544C147.845 27.568 147.173 28.48 146.309 29.28C146.885 28.896 147.365 28.432 147.749 27.888C148.165 27.344 148.501 26.8 148.757 26.256C149.013 25.712 149.205 25.216 149.333 24.768C149.429 24.352 149.509 24.016 149.573 23.76C149.221 24.592 148.805 25.52 148.325 26.544ZM151.541 30.672C151.509 30.736 151.461 30.8 151.397 30.864C151.365 30.896 151.333 30.912 151.301 30.912C151.269 30.912 151.349 30.752 151.541 30.432C151.733 30.08 151.957 29.68 152.213 29.232C152.501 28.752 152.773 28.256 153.029 27.744C153.253 27.36 153.413 27.024 153.509 26.736C153.061 28.112 152.405 29.424 151.541 30.672ZM154.229 22.896C154.229 23.408 154.197 23.92 154.133 24.432C154.069 24.912 153.957 25.36 153.797 25.776C154.021 24.976 154.133 24.08 154.133 23.088C154.133 22.352 154.069 21.632 153.941 20.928C153.845 20.32 153.717 19.728 153.557 19.152C153.717 19.728 153.861 20.304 153.989 20.88C154.149 21.52 154.229 22.192 154.229 22.896ZM139.013 9.408L138.581 9.216C138.549 9.28 138.501 9.344 138.437 9.408C138.373 9.472 138.341 9.536 138.341 9.6C138.341 9.664 138.373 9.76 138.437 9.888C138.533 9.984 138.613 10.064 138.677 10.128L139.013 9.408ZM146.693 15.504C146.597 15.376 146.501 15.264 146.405 15.168C146.501 15.296 146.597 15.408 146.693 15.504ZM153.509 26.736C153.541 26.672 153.557 26.608 153.557 26.544C153.557 26.608 153.541 26.672 153.509 26.736ZM153.605 26.448C153.573 26.48 153.557 26.512 153.557 26.544C153.557 26.512 153.573 26.48 153.605 26.448Z" fill="#FF9E42"/>
</svg>
